<svg width="22" height="22" viewBox="0 0 22 22" fill="none" xmlns="http://www.w3.org/2000/svg">
<g id="ChartPieSlice">
<g id="ChartPieSlice_2">
<path id="Vector" d="M11 11V2.75" stroke="#333333" stroke-width="1.5" stroke-linecap="round" stroke-linejoin="round"/>
<path id="Vector_2" d="M18.1449 6.875L3.85547 15.125" stroke="#333333" stroke-width="1.5" stroke-linecap="round" stroke-linejoin="round"/>
<path id="Vector_3" d="M2.88757 12.5082C2.53038 10.5752 2.87405 8.57809 3.85687 6.87562C4.83968 5.17315 6.39726 3.87684 8.24989 3.21948V9.41232L2.88757 12.5082Z" stroke="#333333" stroke-width="1.5" stroke-linecap="round" stroke-linejoin="round"/>
<path id="Vector_4" d="M10.9999 2.75C12.4454 2.75027 13.8653 3.13028 15.1177 3.85198C16.37 4.57368 17.4108 5.61175 18.1357 6.86222C18.8607 8.11269 19.2444 9.53167 19.2484 10.9771C19.2524 12.4225 18.8766 13.8436 18.1586 15.0981C17.4406 16.3525 16.4056 17.3964 15.1573 18.125C13.909 18.8537 12.4912 19.2416 11.0458 19.2499C9.60038 19.2582 8.17818 18.8866 6.92158 18.1723C5.66498 17.458 4.61809 16.4262 3.88574 15.18" stroke="#333333" stroke-width="1.5" stroke-linecap="round" stroke-linejoin="round"/>
</g>
</g>
</svg>
