<svg width="14" height="14" viewBox="0 0 14 14" fill="none" xmlns="http://www.w3.org/2000/svg">
<path id="Vector" d="M3.50033 11.6666H10.5003C10.8212 11.6666 11.0837 11.9291 11.0837 12.25C11.0837 12.5708 10.8212 12.8333 10.5003 12.8333H3.50033C3.17949 12.8333 2.91699 12.5708 2.91699 12.25C2.91699 11.9291 3.17949 11.6666 3.50033 11.6666ZM7.00033 4.08329C6.35866 4.08329 5.83366 4.60829 5.83366 5.24996C5.83366 5.89163 6.35866 6.41663 7.00033 6.41663C7.64199 6.41663 8.16699 5.89163 8.16699 5.24996C8.16699 4.60829 7.64199 4.08329 7.00033 4.08329ZM7.00033 1.16663C8.90783 1.16663 11.0837 2.60163 11.0837 5.33746C11.0837 7.07579 9.84116 8.90746 7.35616 10.815C7.14616 10.9783 6.85449 10.9783 6.64449 10.815C4.15949 8.90163 2.91699 7.07579 2.91699 5.33746C2.91699 2.60163 5.09283 1.16663 7.00033 1.16663Z" fill="#FFFFFF"/>
</svg>
