<svg xmlns="http://www.w3.org/2000/svg" width="130" height="121" fill="none"><g clip-path="url(#a)"><path fill="#FA6400" fill-rule="evenodd" d="M47.286 83.889a.526.526 0 1 1 .842-.63.526.526 0 0 1-.842.63ZM41.52 51.222a.683.683 0 1 1 1.349-.212.683.683 0 0 1-1.35.212Zm3.92-10.737a.749.749 0 1 1 1.497.013.749.749 0 0 1-1.497-.013Zm6.43-9.461a.818.818 0 1 1 1.61.293.818.818 0 0 1-1.61-.293Zm8.446-7.593a.89.89 0 1 1 1.634.713.89.89 0 1 1-1.634-.713Zm10.12-5.32a.967.967 0 1 1 1.59 1.104.966.966 0 0 1-1.346.244.97.97 0 0 1-.244-1.347Zm11.1-2.68a1.044 1.044 0 0 1 1.477.043c.396.421.377 1.084-.044 1.48a1.043 1.043 0 0 1-1.477-.044 1.047 1.047 0 0 1 .044-1.48Zm11.444.11a1.126 1.126 0 0 1 1.184 1.914 1.123 1.123 0 0 1-1.548-.364 1.127 1.127 0 0 1 .364-1.55Zm11.057 2.895a1.207 1.207 0 0 1 .806 2.274 1.205 1.205 0 1 1-.806-2.274Zm10.019 5.505a1.286 1.286 0 0 1 1.434 1.12 1.287 1.287 0 1 1-1.434-1.12Zm2.506 7.905a48.557 48.557 0 0 0-2.86-2.664 42.592 42.592 0 0 0-27.6-10.15c-11.776 0-22.436 4.78-30.152 12.507a42.605 42.605 0 0 0-12.465 28.706h-5.433c.042-1.415.147-2.831.31-4.23l-9.47-4.303 1.591-7.165 10.613.107a48.585 48.585 0 0 1 2.59-5.773l-7.83-8.11 4.192-6.021 10.297 4.532a49.353 49.353 0 0 1 4.53-4.48l-5.113-10.674 5.93-4.315c2.955 2.81 5.912 5.62 8.864 8.432a48.484 48.484 0 0 1 5.789-2.517l-.857-12.67c2.374-.576 4.749-1.153 7.123-1.731l5.123 11.805c2.102-.219 4.216-.3 6.329-.248L91.829 0l7.274.904.524 13.672-.022-.002c2.039.554 4.037 1.24 5.988 2.053l8.833-11.247 6.386 3.605-5.045 13.403c2.144 1.581 4.056 3.275 5.935 5.16l-5.141 4.298h.001ZM49.305 81.733C55.87 92 67.353 98.87 80.549 98.87c20.501 0 37.088-16.644 37.088-37.138 0-14.701-11.925-26.44-26.404-26.44-7.292 0-13.893 2.96-18.671 7.744a26.537 26.537 0 0 0-4.219 5.506 20.763 20.763 0 0 1 7.281-5.686c10.41-4.898 22.816-.418 27.708 10.006 4.892 10.425.418 22.847-9.992 27.746-10.41 4.898-22.816.418-27.708-10.006a20.802 20.802 0 0 1-1.155-14.667 28.02 28.02 0 0 1 7.61-14.05c5.073-5.08 12.08-8.221 19.821-8.221a27.912 27.912 0 0 1 14.672 4.148c1.413-.335 2.828-.665 4.242-.998l5.297 5.075-.941 4.19a27.974 27.974 0 0 1 2.884 5.535c1.548.49 3.095.996 4.641 1.494l1.284 7.227-4.08 3.031a41.155 41.155 0 0 1-.713 6.188l3.964 3.664-2.347 6.953-5.45.418a41.156 41.156 0 0 1-3.367 5.42l2.596 5.475-5.05 5.32c-1.91-.819-3.824-1.628-5.729-2.455a40.946 40.946 0 0 1-5.342 3.461l.35 6.729-6.811 2.71c-1.505-1.799-3.007-3.599-4.513-5.396a40.87 40.87 0 0 1-6.266.826l-2.68 7.021-7.31-.53c-.55-2.502-1.11-5.009-1.65-7.514a40.561 40.561 0 0 1-6.041-1.93l-5.823 5.865-6.372-3.628c.702-2.713 1.427-5.438 2.11-8.158a40.169 40.169 0 0 1-4.644-4.338l-8.3 3.332-4.283-5.957 4.335-5.11h8.734ZM85.843 44.3c9.614.753 16.799 9.167 16.047 18.794-.752 9.627-9.154 16.82-18.768 16.068-9.614-.753-16.798-9.167-16.046-18.793.75-9.628 9.154-16.822 18.767-16.069Zm-.769 9.85c4.182.326 7.307 3.986 6.98 8.174-.327 4.187-3.982 7.316-8.163 6.989-4.181-.327-7.306-3.988-6.98-8.175.327-4.187 3.982-7.316 8.163-6.989Z" clip-rule="evenodd"/><path fill="#fff" d="m127.256 93.215-1.107-.818-.534.724c-.128.175-.181.35-.157.529a.654.654 0 0 0 .28.447c.163.121.336.167.52.14a.698.698 0 0 0 .464-.298l.534-.724Zm.216 1.14 1.009 1.753-.677.919-1.042-2.035c-.253.14-.517.202-.793.184a1.464 1.464 0 0 1-.786-.302c-.375-.276-.585-.619-.632-1.026-.046-.407.073-.803.357-1.189l1.133-1.537L130 94.048l-.57.774-1.49-1.101-.468.635Zm-.373 3.755-.632.724-2.379-2.08 1.12 3.524-.563.647-3.707-3.24.632-.725 2.374 2.075-1.115-3.52.563-.646 3.707 3.24Zm-3.605 4.072-.702.656-1.405-1.507-1.217 1.138 1.405 1.508-.702.656-3.358-3.601.702-.657 1.373 1.472 1.217-1.138-1.372-1.472.702-.657 3.357 3.602Zm-3.733 3.422-2.476 2.095-3.175-3.763 2.475-2.095.553.655-1.742 1.474.745.883 1.484-1.255.553.655-1.484 1.255.772.915 1.742-1.474.553.655Zm-3.785 3.138-4.637 3.286-2.843-4.021.784-.556 2.348 3.321 1.145-.811-2.348-3.321.784-.556 2.348 3.321 1.139-.807-2.347-3.322.784-.556 2.842 4.022h.001Zm-5.933 3.964-2.889 1.47-2.23-4.392 2.89-1.471.388.765-2.033 1.035.523 1.03 1.731-.881.388.765-1.731.881.542 1.067 2.033-1.034.388.765Zm-7.58.695.819-.371c.197-.089.329-.216.397-.381a.643.643 0 0 0-.025-.524.649.649 0 0 0-.379-.368c-.169-.06-.352-.046-.549.044l-.818.371.555 1.229Zm-1.784-1.614 1.738-.788c.432-.196.846-.225 1.242-.088.395.137.686.409.87.817.186.412.2.811.041 1.197-.16.386-.455.677-.887.873l-.863.391.764 1.69-.875.397-2.03-4.489Zm-1.044 5.609-.903.328-1.076-2.973-.723 3.626-.806.292-1.676-4.632.903-.327 1.073 2.966.727-3.62.805-.292 1.676 4.633v-.001Zm-5.174 1.652-5.535 1.28-1.106-4.801.936-.217.913 3.965 1.367-.316-.913-3.965.935-.216.914 3.965 1.36-.315-.913-3.964.936-.217 1.107 4.801Zm-8.458-.153-.836-1.695-.376 1.86 1.212-.165Zm1.76 1.459-.994.134-.404-.825-1.733.235-.178.904-.992.134 1.113-5.122.747-.102 2.44 4.642Zm-5.441.581-.96.018-.038-2.062-1.665.03.037 2.062-.96.017-.089-4.926.96-.017.037 2.013 1.665-.03-.036-2.014.96-.017.089 4.926Zm-6.462-1.563-3.052-.234.063-.835 3.053.234-.064.835Zm-6.215.911-.947-.161.532-3.118-2.42 2.794-.844-.144.829-4.857.947.162-.531 3.111 2.418-2.788.844.145-.828 4.856Zm-5.312-1.059-.914-.274.529-1.77c-.542-.071-.954-.148-1.236-.233a1.332 1.332 0 0 1-.762-.553c-.177-.269-.21-.587-.1-.954l.575-1.93.92.276-.504 1.69c-.112.376.028.623.421.74.278.084.586.139.923.169l.644-2.155.913.273-1.409 4.721Zm-5-3.268-.04-1.891-1.127 1.527 1.168.364Zm.98 2.066-.957-.298-.018-.919-1.67-.521-.542.744-.957-.298 3.171-4.171.72.224.253 5.239Zm-5.867-3.098 1.293-2.938-.992-.438-.288.652c-.434.988-.903 1.691-1.404 2.11l1.391.614Zm.611 2.403-.847-.374.44-1.001-2.498-1.102-.44 1-.847-.374.786-1.786.424.187c.601-.394 1.158-1.172 1.669-2.333l.507-1.152 2.713 1.197-1.64 3.723.52.229-.787 1.786Zm-4.872-5.345.34-1.859-1.41 1.266 1.07.593Zm.541 2.222-.876-.486.167-.903-1.53-.848-.681.619-.877-.486 3.948-3.443.66.365-.81 5.182Zm-6.117-3.6c-.386-.254-.64-.581-.766-.981-.126-.401-.087-.83.115-1.288l.796.525c-.152.458-.046.807.32 1.048.2.132.394.187.58.163a.599.599 0 0 0 .443-.284c.117-.177.153-.348.11-.514-.041-.167-.165-.317-.369-.451l-.53-.351.433-.658.537.354c.177.116.344.162.502.136.157-.026.29-.122.4-.287a.56.56 0 0 0 .086-.478c-.046-.16-.161-.301-.346-.423a.775.775 0 0 0-.568-.138 1.01 1.01 0 0 0-.522.273l-.803-.529c.341-.367.72-.571 1.137-.614.417-.043.821.065 1.214.324.408.269.673.593.796.972.123.38.071.741-.154 1.084-.261.397-.634.574-1.118.53.28.439.272.882-.022 1.328-.243.37-.575.577-.995.62-.42.044-.846-.077-1.276-.361Zm-3.85-2.744-.723-.632 2.077-2.383-3.52 1.122-.645-.564 3.236-3.712.724.633-2.072 2.377 3.514-1.117.646.565-3.236 3.711Zm-4.122-3.516-3.877-4.159 3.597-3.362.656.703-2.97 2.777.957 1.027 2.97-2.777.655.703-2.97 2.777.953 1.022 2.97-2.777.656.703-3.597 3.363Zm-4.32-7.334 1.002-1.603-1.778.657.776.946Zm-.315 2.265-.636-.775.489-.778-1.11-1.353-.861.323-.636-.775 4.938-1.743.478.584-2.662 4.517Zm-4.09-6.714.546.842c.108.166.239.268.394.305.156.036.31.004.465-.096a.575.575 0 0 0 .275-.384c.028-.156-.012-.317-.12-.484l-.545-.842-1.014.659Zm1.74-1.13.512.79c.107.167.234.27.38.31.147.04.294.011.44-.084a.53.53 0 0 0 .257-.368c.023-.15-.019-.308-.126-.475l-.512-.79-.95.618Zm.706 1.843c.016.177.01.329-.017.457-.071.288-.254.527-.547.718-.364.236-.726.309-1.086.218-.36-.09-.666-.329-.917-.716l-1.12-1.73 4.129-2.68 1.075 1.66c.253.392.351.769.296 1.132-.056.364-.258.658-.606.884-.394.255-.796.275-1.207.057ZM27.144 65.703v15.28h6.004v-15.28h7.246l.008-4.84H20.887l-.052 4.84h6.309Zm-14.552 2.8H7.348v4.84h5.244c.468 0 .833.126 1.098.38.264.254.396.59.396 1.006 0 .399-.132.734-.396 1.006s-.63.408-1.098.408H7.348v4.84h6.372c1.789 0 3.298-.577 4.527-1.727 1.23-1.151 1.845-2.66 1.845-4.527 0-.87-.249-1.663-.747-2.379s-1.123-1.173-1.875-1.373c.793-.38 1.428-.901 1.906-1.563.477-.662.716-1.436.716-2.325 0-1.848-.605-3.348-1.814-4.499-1.21-1.151-2.729-1.726-4.558-1.726H0V80.982h6.006v-15.28h6.586c.467 0 .833.128 1.098.381.264.254.396.59.396 1.006 0 .4-.132.734-.396 1.006-.265.272-.63.408-1.098.408Zm22.362 5.36v7.119l9.997-8.07v8.07l9.608-7.64v7.64h6.31V60.338l-9.175 7.15v-7.15l-16.74 13.526Z"/></g><defs><clipPath id="a"><path fill="#fff" d="M0 0h130v121H0z"/></clipPath></defs></svg>