<svg xmlns="http://www.w3.org/2000/svg">
    <symbol id="vk" width="18" height="9" viewBox="0 0 18 9" fill="none" xmlns="http://www.w3.org/2000/svg">
        <path d="M8.79535 8.96575H9.87497C10.0549 8.94145 10.2348 8.86856 10.3733 8.77137C10.4563 8.64988 10.5255 8.51625 10.5255 8.35832C10.5255 8.35832 10.4978 7.09485 11.176 6.90047C11.8543 6.70609 12.6847 8.12749 13.5844 8.67418C14.2626 9.08724 14.7748 8.99005 14.7748 8.99005L17.1831 8.9536C17.1831 8.9536 18.4427 8.89286 17.8337 8.0303C17.7922 7.95741 17.4738 7.39857 16.0343 6.22014C14.5256 4.99312 14.7332 5.19965 16.5464 3.06148C17.6537 1.77371 18.0967 0.984046 17.9583 0.631733C17.8198 0.279421 17.0171 0.400907 17.0171 0.400907L14.318 0.425205C14.2073 0.400908 14.0689 0.425205 13.9581 0.485949C13.8474 0.546692 13.7782 0.643882 13.709 0.741071C13.446 1.3728 13.1 2.00454 12.7263 2.59982C11.5082 4.39783 11.0376 4.49502 10.8439 4.37354C10.4009 4.11841 10.5117 3.32875 10.5117 2.76991C10.5117 1.03264 10.8023 0.303718 9.93033 0.121487C9.52893 0.0485949 9.09986 0 8.67078 0C7.70189 0 6.8991 -1.88271e-07 6.42849 0.194379C6.0963 0.315866 5.87484 0.607436 6.01326 0.607436C6.3316 0.631733 6.59459 0.765369 6.81605 0.959749C7.07903 1.29991 7.07903 2.02884 7.07903 2.02884C7.07903 2.02884 7.23129 4.08197 6.69148 4.33709C6.3316 4.51932 5.83332 4.15486 4.7537 2.52693C4.39383 1.95594 4.06164 1.38495 3.78481 0.765369C3.74329 0.668179 3.6464 0.57099 3.56335 0.510246C3.52183 0.485949 3.48031 0.449503 3.42494 0.449503C3.28653 0.388759 3.13428 0.37661 2.98202 0.37661L0.573643 0.400907C0.573643 0.400907 0.186088 0.400907 0.0615167 0.558841C-0.0768959 0.716774 0.0615167 0.9476 0.0615167 0.9476C0.0615167 0.9476 2.08234 5.09031 4.35231 7.16774C6.44233 9.09939 8.79535 8.96575 8.79535 8.96575Z" fill="currentColor"/>
    </symbol>

    <symbol id="telegram" width="18" height="18" viewBox="0 0 18 18" fill="none" xmlns="http://www.w3.org/2000/svg">
        <path d="M16.307 2.03681L1.46881 8.44339C1.3267 8.5026 1.25565 8.66839 1.3267 8.81049C1.35039 8.8697 1.38591 8.91707 1.44512 8.94075L4.90302 10.9776C4.93854 11.0013 4.97407 11.0368 4.98591 11.0842L6.57276 15.7973C6.62012 15.9394 6.78591 16.0223 6.92802 15.975C6.97539 15.9631 7.01091 15.9394 7.04644 15.9039L9.11881 13.6894C9.17802 13.6302 9.27276 13.6184 9.34381 13.6539L12.0083 15.1105C12.1385 15.1815 12.3162 15.1342 12.3872 15.0039C12.3991 14.9921 12.3991 14.9684 12.4109 14.9565L16.6859 2.39207C16.7333 2.24996 16.6622 2.08417 16.5083 2.03681C16.4372 2.01312 16.3662 2.01312 16.307 2.03681ZM7.61486 12.1736L6.84512 14.3289L5.73197 10.9302L13.832 4.76049L7.61486 12.1736Z" fill="currentColor"/>
    </symbol>

    <symbol id="whatsapp" width="16" height="16" viewBox="0 0 16 16" fill="none" xmlns="http://www.w3.org/2000/svg">
        <path d="M8.00031 1.15784C4.22136 1.15784 1.1582 4.22099 1.1582 7.99994C1.1582 9.43152 1.62136 10.842 2.45294 11.9999L1.60031 14.5473L4.23189 13.7052C7.37926 15.7894 11.6319 14.9157 13.7056 11.7578C15.7793 8.59994 14.9161 4.35784 11.7582 2.28415C10.6529 1.55784 9.33715 1.15784 8.00031 1.15784ZM11.6424 10.842L10.9056 11.5578C10.1372 12.3263 8.10557 11.4947 6.30557 9.67363C4.50557 7.85257 3.70557 5.84205 4.43189 5.09468L5.16873 4.35784C5.46347 4.08415 5.90557 4.08415 6.21083 4.35784L7.28452 5.43152C7.57926 5.7052 7.57926 6.14731 7.30557 6.44205C7.22136 6.52626 7.13715 6.57889 7.01083 6.61047C6.65294 6.72626 6.44241 7.08415 6.54768 7.45257C6.73715 8.25257 7.77926 9.25257 8.54768 9.45257C8.90557 9.51573 9.26347 9.33678 9.38978 8.98942C9.50557 8.61047 9.9161 8.41047 10.295 8.52626C10.4108 8.55784 10.495 8.63152 10.5898 8.71573L11.6635 9.78942C11.895 10.0842 11.895 10.5473 11.6424 10.842Z" fill="currentColor"/>
    </symbol>

    <symbol id="arrow" width="18" height="19" viewBox="0 0 18 19" fill="none" xmlns="http://www.w3.org/2000/svg">
        <path d="M9.96967 14.8248C9.67678 14.5319 9.67678 14.057 9.96967 13.7641L13.9393 9.79443L2.25 9.79443C1.83579 9.79443 1.5 9.45865 1.5 9.04443C1.5 8.63022 1.83579 8.29443 2.25 8.29443L13.9393 8.29443L9.96967 4.32476C9.67678 4.03187 9.67678 3.557 9.96967 3.2641C10.2626 2.97121 10.7374 2.97121 11.0303 3.2641L16.2803 8.5141C16.5732 8.807 16.5732 9.28187 16.2803 9.57476L11.0303 14.8248C10.7374 15.1177 10.2626 15.1177 9.96967 14.8248Z" fill="currentColor"/>
    </symbol>

    <symbol id="cross" width="16" height="16" viewBox="0 0 16 16" fill="none" xmlns="http://www.w3.org/2000/svg">
        <path d="M8.88173 7.9864L13.8557 3.0257C13.954 2.91123 14.0054 2.76398 13.9996 2.61338C13.9937 2.46278 13.9311 2.31992 13.8243 2.21335C13.7174 2.10677 13.5742 2.04434 13.4232 2.03852C13.2722 2.03271 13.1245 2.08393 13.0097 2.18197L8.03573 7.14266L3.06173 2.17598C2.94874 2.0633 2.79551 2 2.63573 2C2.47595 2 2.32271 2.0633 2.20973 2.17598C2.09674 2.28866 2.03327 2.44149 2.03327 2.60084C2.03327 2.7602 2.09674 2.91302 2.20973 3.0257L7.18973 7.9864L2.20973 12.9471C2.14692 13.0007 2.0959 13.0668 2.05989 13.141C2.02388 13.2152 2.00364 13.2961 2.00045 13.3785C1.99726 13.4609 2.01118 13.5431 2.04134 13.6199C2.07151 13.6967 2.11726 13.7664 2.17574 13.8247C2.23421 13.8831 2.30414 13.9287 2.38113 13.9588C2.45813 13.9889 2.54053 14.0027 2.62316 13.9996C2.70579 13.9964 2.78687 13.9762 2.86131 13.9403C2.93575 13.9044 3.00194 13.8535 3.05573 13.7908L8.03573 8.83014L13.0097 13.7908C13.1245 13.8889 13.2722 13.9401 13.4232 13.9343C13.5742 13.9285 13.7174 13.866 13.8243 13.7595C13.9311 13.6529 13.9937 13.51 13.9996 13.3594C14.0054 13.2088 13.954 13.0616 13.8557 12.9471L8.88173 7.9864Z" fill="currentColor"/>
    </symbol>

    <symbol id="logo" width="130" height="121" viewBox="0 0 130 121" fill="none">
        <g clip-path="url(#clip0_193_119)">
            <path fill-rule="evenodd" clip-rule="evenodd" d="M47.2858 83.8886C47.112 83.6567 47.159 83.3271 47.3909 83.153C47.6225 82.9789 47.9516 83.0261 48.1254 83.2583C48.2994 83.4903 48.2522 83.8198 48.0203 83.9938C47.7887 84.1679 47.4595 84.1209 47.2858 83.8886ZM41.5199 51.2222C41.4617 50.8495 41.7156 50.5003 42.0878 50.4417C42.46 50.3831 42.809 50.6376 42.8673 51.0105C42.9257 51.3829 42.6715 51.7323 42.2995 51.7908C41.9273 51.8491 41.5784 51.5946 41.5199 51.2222ZM45.4404 40.4852C45.444 40.0719 45.7817 39.7393 46.1948 39.7429C46.6078 39.7466 46.9397 40.0848 46.9362 40.4984C46.9324 40.912 46.5946 41.2441 46.1815 41.2407C45.7686 41.237 45.4366 40.8988 45.4404 40.4852ZM51.8697 31.0238C51.951 30.5788 52.3772 30.284 52.8217 30.3653C53.2661 30.4471 53.5606 30.8737 53.4791 31.3188C53.3979 31.7637 52.9715 32.0585 52.5271 31.977C52.0828 31.8955 51.7884 31.4689 51.8697 31.0238ZM60.3162 23.4312C60.5125 22.9792 61.0378 22.7721 61.4893 22.9692C61.9406 23.1659 62.147 23.6918 61.9504 24.1439C61.754 24.5959 61.2286 24.8025 60.7773 24.6057C60.326 24.4088 60.1195 23.883 60.3162 23.4312ZM70.4362 18.1116C70.7404 17.6719 71.3432 17.5624 71.7823 17.8671C72.221 18.1719 72.3304 18.7754 72.026 19.215C71.7218 19.6546 71.1192 19.764 70.6802 19.4593C70.2412 19.1546 70.132 18.5512 70.4362 18.1116ZM81.5362 15.4303C81.9563 15.0339 82.6175 15.0536 83.0133 15.4744C83.4092 15.895 83.3896 16.5575 82.9694 16.9535C82.5493 17.3501 81.8879 17.3304 81.4923 16.9096C81.0964 16.4891 81.1162 15.8266 81.5362 15.4303ZM92.9799 15.5411C93.5075 15.2137 94.2008 15.3766 94.5275 15.9049C94.8548 16.4335 94.692 17.1274 94.1642 17.4548C93.6366 17.7823 92.9436 17.6195 92.6163 17.091C92.2895 16.5627 92.4522 15.8687 92.9799 15.5411ZM104.037 18.4361C104.664 18.2131 105.353 18.5413 105.575 19.1691C105.798 19.797 105.47 20.4869 104.843 20.7098C104.216 20.9328 103.527 20.6046 103.304 19.9768C103.082 19.3486 103.41 18.6588 104.037 18.4361ZM114.056 23.9412C114.76 23.8538 115.403 24.3547 115.49 25.0611C115.578 25.7669 115.077 26.4102 114.372 26.4977C113.667 26.5856 113.025 26.0842 112.937 25.3783C112.85 24.6721 113.35 24.0292 114.056 23.9412ZM116.562 31.8455C115.634 30.9179 114.702 30.033 113.702 29.1817C110.301 26.2902 106.492 23.9692 102.422 22.2813C97.299 20.1567 91.7594 19.0324 86.1022 19.0324C74.3265 19.0324 63.6665 23.8116 55.9498 31.5387C48.2734 39.2249 43.8571 49.4441 43.4848 60.2445H38.0516C38.0939 58.8298 38.1987 57.4135 38.362 56.0152L28.8926 51.7124C29.4227 49.3238 29.9528 46.9356 30.4833 44.5471L41.0957 44.6541C41.8368 42.6655 42.703 40.7375 43.6864 38.8807L35.8552 30.7703C37.2529 28.7634 38.6505 26.7566 40.0484 24.7498L50.3454 29.2818C50.9844 28.5617 51.6444 27.861 52.3241 27.1798C53.1462 26.3573 53.9972 25.5635 54.8754 24.8013L49.7623 14.128C51.7391 12.6895 53.7156 11.2513 55.6924 9.81284C58.6469 12.6236 61.6036 15.4321 64.5561 18.2448C66.4191 17.2859 68.3521 16.4439 70.3446 15.7277L69.4877 3.05871C71.8624 2.48172 74.2366 1.90462 76.6113 1.32697L81.7336 13.1321C83.8355 12.9134 85.95 12.8313 88.0625 12.8839L91.8285 0.00012207C94.2532 0.301638 96.6776 0.602826 99.1029 0.904341C99.2775 5.46198 99.4524 10.019 99.627 14.5761L99.6046 14.5738C101.644 15.1279 103.642 15.814 105.593 16.6269L114.426 5.37982L120.812 8.98477L115.767 22.3877C117.911 23.969 119.823 25.6635 121.702 27.5478L116.561 31.8457L116.562 31.8455ZM49.3047 81.7327C55.8713 92 67.3528 98.8704 80.5485 98.8704C101.05 98.8704 117.637 82.2258 117.637 61.7321C117.637 47.0308 105.712 35.2918 91.2327 35.2918C83.9409 35.2918 77.3398 38.2517 72.5616 43.0363C70.9271 44.6728 69.506 46.5233 68.3433 48.5418C70.2536 46.1957 72.7056 44.2302 75.6245 42.8564C86.0349 37.9581 98.4404 42.4377 103.332 52.8622C108.224 63.2869 103.75 75.7089 93.3399 80.6076C82.9294 85.506 70.5244 81.0263 65.6321 70.6018C63.3916 65.8263 63.1169 60.633 64.4767 55.935C65.6141 50.5103 68.3156 45.6614 72.0875 41.885C77.1603 36.8054 84.1679 33.6639 91.9082 33.6639C97.0914 33.6639 102.162 35.0873 106.58 37.8119C107.993 37.4766 109.408 37.1467 110.822 36.8142L116.119 41.8891C115.805 43.2857 115.492 44.6817 115.178 46.0783C116.334 47.7978 117.305 49.6522 118.062 51.6137C119.61 52.1047 121.157 52.61 122.703 53.1083C123.131 55.5174 123.559 57.9264 123.987 60.335C122.627 61.3454 121.267 62.3558 119.907 63.3664C119.824 65.4735 119.583 67.5397 119.194 69.5538L123.158 73.2178C122.376 75.5358 121.593 77.8537 120.811 80.1713L115.361 80.5895C114.377 82.4877 113.25 84.2987 111.994 86.009L114.59 91.4835C112.906 93.2567 111.223 95.0301 109.54 96.8032C107.63 95.9855 105.716 95.1763 103.811 94.3494C102.128 95.6356 100.343 96.794 98.4691 97.8103L98.8194 104.539C96.5487 105.442 94.278 106.346 92.0076 107.249C90.5032 105.45 89.0005 103.65 87.4954 101.853C85.4583 102.284 83.3657 102.564 81.2289 102.679L78.5491 109.7C76.1128 109.523 73.6753 109.347 71.2385 109.17C70.6889 106.668 70.1292 104.161 69.5884 101.656C67.5095 101.167 65.4912 100.52 63.5479 99.7269L57.7252 105.591C55.601 104.381 53.4774 103.172 51.3531 101.963C52.0548 99.2504 52.7803 96.5255 53.4632 93.8045C51.8224 92.4934 50.2306 91.0232 48.819 89.4669L40.5191 92.7987C39.0912 90.813 37.6639 88.8275 36.2361 86.8416L40.5713 81.7327H49.3048H49.3047ZM85.8434 44.3013C95.4573 45.0538 102.642 53.4681 101.89 63.0946C101.138 72.7215 92.7355 79.9154 83.1219 79.1626C73.508 78.4098 66.3236 69.9959 67.0756 60.3695C67.8269 50.7423 76.23 43.5484 85.8434 44.3013ZM85.0744 54.1502C89.2559 54.4773 92.3809 58.1375 92.0542 62.3246C91.7274 66.5116 88.0722 69.6409 83.8909 69.3137C79.7095 68.9865 76.5845 65.3263 76.9112 61.1392C77.238 56.9519 80.8932 53.8231 85.0744 54.1502Z" fill="#FA6400"/>
            <path d="M127.257 93.2151L126.15 92.3973L125.616 93.1213C125.488 93.2958 125.435 93.4718 125.459 93.6497C125.483 93.8276 125.576 93.9769 125.739 94.0974C125.902 94.2181 126.075 94.2644 126.259 94.2366C126.442 94.2089 126.597 94.1097 126.723 93.939L127.257 93.215V93.2151ZM127.473 94.3555L128.482 96.1084L127.805 97.027L126.763 94.9921C126.51 95.1322 126.246 95.1937 125.97 95.1762C125.694 95.1583 125.432 95.0578 125.183 94.8742C124.809 94.5975 124.599 94.2554 124.552 93.8484C124.506 93.4413 124.625 93.0451 124.909 92.659L126.042 91.1223L130.001 94.0482L129.431 94.8222L127.941 93.721L127.473 94.3555ZM127.1 98.1096L126.468 98.8341L124.089 96.7542L125.209 100.278L124.646 100.925L120.939 97.6842L121.571 96.9597L123.945 99.0349L122.83 95.5155L123.393 94.8691L127.1 98.1095V98.1096ZM123.495 102.182L122.793 102.838L121.388 101.331L120.171 102.469L121.576 103.977L120.874 104.633L117.516 101.032L118.218 100.375L119.591 101.847L120.808 100.709L119.436 99.237L120.138 98.5804L123.495 102.182ZM119.762 105.604L117.286 107.699L114.111 103.936L116.586 101.841L117.139 102.496L115.397 103.97L116.142 104.853L117.626 103.598L118.179 104.253L116.695 105.508L117.467 106.423L119.209 104.949L119.762 105.604H119.762ZM115.976 108.742L111.34 112.028L108.497 108.007L109.281 107.451L111.629 110.772L112.774 109.961L110.426 106.64L111.21 106.084L113.558 109.405L114.697 108.598L112.35 105.276L113.134 104.72L115.976 108.742H115.976ZM110.044 112.706L107.155 114.176L104.925 109.784L107.815 108.313L108.203 109.078L106.17 110.113L106.693 111.143L108.424 110.262L108.812 111.027L107.081 111.908L107.623 112.975L109.656 111.941L110.044 112.706V112.706ZM102.464 113.401L103.283 113.03C103.48 112.941 103.612 112.814 103.68 112.649C103.747 112.484 103.738 112.309 103.655 112.125C103.571 111.939 103.445 111.817 103.276 111.757C103.107 111.697 102.924 111.711 102.727 111.801L101.908 112.172L102.464 113.401V113.401ZM100.68 111.787L102.418 110.999C102.85 110.803 103.264 110.774 103.66 110.911C104.055 111.048 104.346 111.32 104.53 111.728C104.716 112.14 104.729 112.539 104.571 112.925C104.411 113.311 104.116 113.602 103.684 113.798L102.821 114.189L103.585 115.879L102.71 116.276L100.68 111.787V111.787ZM99.6364 117.396L98.7331 117.724L97.6575 114.751L96.9336 118.377L96.1278 118.669L94.4517 114.037L95.3547 113.71L96.4282 116.676L97.1545 113.056L97.96 112.764L99.6364 117.397V117.396ZM94.4625 119.048L88.927 120.328L87.8205 115.527L88.7566 115.31L89.6702 119.275L91.0372 118.959L90.1236 114.994L91.0595 114.778L91.9733 118.743L93.3336 118.428L92.4197 114.464L93.3562 114.247L94.4626 119.048L94.4625 119.048ZM86.004 118.895L85.1684 117.2L84.7919 119.06L86.004 118.895V118.895ZM87.7634 120.354L86.7702 120.488L86.3658 119.663L84.6332 119.898L84.4554 120.802L83.4626 120.936L84.5764 115.814L85.3231 115.712L87.7634 120.354ZM82.3228 120.935L81.3626 120.953L81.3253 118.891L79.6601 118.921L79.6973 120.983L78.7371 121L78.648 116.074L79.6085 116.057L79.645 118.07L81.3099 118.04L81.2738 116.026L82.234 116.009L82.3228 120.935ZM75.8612 119.372L72.8085 119.138L72.8722 118.303L75.9249 118.537L75.8612 119.372ZM69.6456 120.283L68.6987 120.122L69.2306 117.004L66.8118 119.798L65.9668 119.654L66.7955 114.797L67.7424 114.959L67.2118 118.07L69.6296 115.282L70.4742 115.427L69.6456 120.283V120.283ZM64.3343 119.224L63.4204 118.95L63.949 117.18C63.4073 117.109 62.9953 117.032 62.7129 116.947C62.3819 116.848 62.1278 116.664 61.9511 116.394C61.7742 116.125 61.7406 115.807 61.8502 115.44L62.4261 113.51L63.3463 113.786L62.8418 115.476C62.7298 115.852 62.8701 116.099 63.263 116.216C63.541 116.3 63.8489 116.355 64.1864 116.385L64.8296 114.23L65.7434 114.503L64.3343 119.224ZM59.3349 115.956L59.293 114.065L58.1668 115.592L59.3348 115.956H59.3349ZM60.3138 118.022L59.3571 117.724L59.3387 116.805L57.6692 116.284L57.1267 117.028L56.17 116.73L59.3411 112.559L60.0606 112.783L60.3136 118.022L60.3138 118.022ZM54.447 114.924L55.7404 111.986L54.7479 111.548L54.4604 112.2C54.0256 113.188 53.5574 113.891 53.0557 114.31L54.447 114.924ZM55.0582 117.327L54.2107 116.953L54.6512 115.952L52.1534 114.85L51.7129 115.85L50.8656 115.476L51.6518 113.69L52.0756 113.877C52.6772 113.483 53.2336 112.705 53.7447 111.544L54.2521 110.392L56.9649 111.589L55.3257 115.312L55.8442 115.541L55.058 117.327H55.0582ZM50.1858 111.982L50.5264 110.123L49.1154 111.389L50.1857 111.982H50.1858ZM50.7275 114.204L49.8506 113.718L50.0182 112.815L48.4883 111.967L47.8065 112.586L46.9299 112.1L50.8778 108.657L51.5374 109.022L50.7276 114.204L50.7275 114.204ZM44.6095 110.604C44.2245 110.35 43.9694 110.023 43.8438 109.623C43.7183 109.222 43.7565 108.793 43.9586 108.335L44.7549 108.86C44.6028 109.318 44.7094 109.667 45.0749 109.908C45.2751 110.04 45.4686 110.095 45.655 110.071C45.8414 110.048 45.9889 109.953 46.0978 109.787C46.2146 109.61 46.2514 109.439 46.2089 109.273C46.1665 109.106 46.0434 108.956 45.8394 108.822L45.3085 108.471L45.7417 107.813L46.2786 108.167C46.4555 108.283 46.6228 108.329 46.7806 108.303C46.9381 108.277 47.0716 108.181 47.1806 108.016C47.2844 107.858 47.3131 107.698 47.2671 107.538C47.2207 107.378 47.1054 107.237 46.9206 107.115C46.7321 106.991 46.5431 106.945 46.3533 106.977C46.1638 107.01 45.9895 107.101 45.8306 107.25L45.0284 106.721C45.369 106.354 45.7475 106.15 46.1646 106.107C46.5816 106.064 46.9862 106.172 47.3788 106.431C47.7865 106.7 48.052 107.024 48.1748 107.403C48.2979 107.783 48.2464 108.144 48.021 108.487C47.7599 108.884 47.3871 109.061 46.9027 109.017C47.1823 109.456 47.1753 109.899 46.8811 110.345C46.6379 110.715 46.3063 110.922 45.8863 110.965C45.466 111.009 45.0403 110.888 44.6096 110.604H44.6095ZM40.7605 107.86L40.0369 107.228L42.1141 104.845L38.5947 105.967L37.9493 105.403L41.1853 101.691L41.9088 102.324L39.8364 104.701L43.3511 103.584L43.9967 104.149L40.7606 107.86H40.7605ZM36.638 104.344L32.7612 100.185L36.3578 96.8234L37.0135 97.5264L34.0431 100.303L35.0007 101.33L37.9707 98.5534L38.6263 99.2564L35.6561 102.033L36.6087 103.055L39.5789 100.278L40.2347 100.981L36.6381 104.344L36.638 104.344ZM32.3184 97.0103L33.3201 95.4075L31.542 96.0637L32.3183 97.0104L32.3184 97.0103ZM32.0033 99.2754L31.3674 98.4998L31.856 97.7218L30.7461 96.3691L29.8847 96.6925L29.2487 95.9172L34.1868 94.1745L34.665 94.7576L32.0033 99.2754ZM27.9135 92.5608L28.4585 93.403C28.5665 93.5694 28.6979 93.6711 28.8534 93.7076C29.0087 93.744 29.1638 93.7123 29.3185 93.612C29.4731 93.5117 29.5644 93.3833 29.5927 93.2277C29.6209 93.0721 29.581 92.9106 29.4733 92.7444L28.9282 91.9022L27.9135 92.5608ZM29.6534 91.4316L30.1646 92.2215C30.2723 92.3878 30.3992 92.4912 30.5458 92.5308C30.6923 92.5704 30.8388 92.5425 30.9856 92.4471C31.1326 92.3519 31.2178 92.2292 31.2416 92.079C31.2653 91.9291 31.2231 91.7705 31.1155 91.6043L30.6043 90.8144L29.6532 91.4316H29.6534ZM30.3595 93.2738C30.3753 93.4507 30.3696 93.603 30.3424 93.7306C30.271 94.0191 30.0884 94.2582 29.7945 94.449C29.4312 94.6848 29.0692 94.7579 28.7087 94.6674C28.3482 94.5768 28.0425 94.3382 27.7921 93.9511L26.6719 92.2205L30.8008 89.5406L31.8759 91.2015C32.1291 91.5927 32.2274 91.9697 32.1719 92.3331C32.116 92.6966 31.914 92.9909 31.5662 93.2166C31.1719 93.4725 30.7698 93.4916 30.3595 93.2738Z" fill="currentColor"/>
            <path d="M27.1436 65.7028V80.9821H33.1482V65.7028H40.3941L40.4021 60.8637H20.8865L20.8346 65.7028H27.1437H27.1436ZM12.5922 68.5031H7.348V73.3425H12.5922C13.0596 73.3425 13.4255 73.4694 13.6898 73.7231C13.9538 73.9769 14.086 74.3122 14.086 74.729C14.086 75.1279 13.9538 75.4631 13.6898 75.735C13.4255 76.0068 13.0596 76.1429 12.5922 76.1429H7.348V80.9821H13.72C15.5088 80.9821 17.0179 80.4065 18.2475 79.2557C19.4774 78.1049 20.0921 76.596 20.0921 74.729C20.0921 73.8591 19.8433 73.066 19.3453 72.3502C18.8472 71.6342 18.2221 71.1766 17.4701 70.9773C18.2629 70.5966 18.898 70.0756 19.3759 69.414C19.8534 68.7523 20.0921 67.9775 20.0921 67.0893C20.0921 65.2406 19.4874 63.7408 18.2782 62.59C17.0687 61.439 15.5492 60.8636 13.72 60.8636H0V65.7027V80.982H6.00645V65.7027H12.5921C13.0595 65.7027 13.4254 65.8297 13.6896 66.0834C13.9537 66.3371 14.0861 66.6727 14.0859 67.0893C14.0861 67.4882 13.9537 67.8235 13.6896 68.0954C13.4254 68.3672 13.0595 68.5031 12.5921 68.5031H12.5922ZM34.9537 73.8636V80.982L44.951 72.912V80.982L54.5593 73.3425V80.982H60.8685V60.338L51.6942 67.4882V60.338L34.9537 73.8636Z" fill="currentColor"/>
        </g>
        <defs>
            <clipPath id="clip0_193_119">
                <rect width="130" height="121" fill="white"/>
            </clipPath>
        </defs>
    </symbol>
</svg>

