<svg xmlns="http://www.w3.org/2000/svg">
    <symbol id="vk" width="18" height="9" viewBox="0 0 18 9" fill="none" xmlns="http://www.w3.org/2000/svg">
        <path d="M8.79535 8.96575H9.87497C10.0549 8.94145 10.2348 8.86856 10.3733 8.77137C10.4563 8.64988 10.5255 8.51625 10.5255 8.35832C10.5255 8.35832 10.4978 7.09485 11.176 6.90047C11.8543 6.70609 12.6847 8.12749 13.5844 8.67418C14.2626 9.08724 14.7748 8.99005 14.7748 8.99005L17.1831 8.9536C17.1831 8.9536 18.4427 8.89286 17.8337 8.0303C17.7922 7.95741 17.4738 7.39857 16.0343 6.22014C14.5256 4.99312 14.7332 5.19965 16.5464 3.06148C17.6537 1.77371 18.0967 0.984046 17.9583 0.631733C17.8198 0.279421 17.0171 0.400907 17.0171 0.400907L14.318 0.425205C14.2073 0.400908 14.0689 0.425205 13.9581 0.485949C13.8474 0.546692 13.7782 0.643882 13.709 0.741071C13.446 1.3728 13.1 2.00454 12.7263 2.59982C11.5082 4.39783 11.0376 4.49502 10.8439 4.37354C10.4009 4.11841 10.5117 3.32875 10.5117 2.76991C10.5117 1.03264 10.8023 0.303718 9.93033 0.121487C9.52893 0.0485949 9.09986 0 8.67078 0C7.70189 0 6.8991 -1.88271e-07 6.42849 0.194379C6.0963 0.315866 5.87484 0.607436 6.01326 0.607436C6.3316 0.631733 6.59459 0.765369 6.81605 0.959749C7.07903 1.29991 7.07903 2.02884 7.07903 2.02884C7.07903 2.02884 7.23129 4.08197 6.69148 4.33709C6.3316 4.51932 5.83332 4.15486 4.7537 2.52693C4.39383 1.95594 4.06164 1.38495 3.78481 0.765369C3.74329 0.668179 3.6464 0.57099 3.56335 0.510246C3.52183 0.485949 3.48031 0.449503 3.42494 0.449503C3.28653 0.388759 3.13428 0.37661 2.98202 0.37661L0.573643 0.400907C0.573643 0.400907 0.186088 0.400907 0.0615167 0.558841C-0.0768959 0.716774 0.0615167 0.9476 0.0615167 0.9476C0.0615167 0.9476 2.08234 5.09031 4.35231 7.16774C6.44233 9.09939 8.79535 8.96575 8.79535 8.96575Z" fill="currentColor"/>
    </symbol>

    <symbol id="telegram" width="18" height="18" viewBox="0 0 18 18" fill="none" xmlns="http://www.w3.org/2000/svg">
        <path d="M16.307 2.03681L1.46881 8.44339C1.3267 8.5026 1.25565 8.66839 1.3267 8.81049C1.35039 8.8697 1.38591 8.91707 1.44512 8.94075L4.90302 10.9776C4.93854 11.0013 4.97407 11.0368 4.98591 11.0842L6.57276 15.7973C6.62012 15.9394 6.78591 16.0223 6.92802 15.975C6.97539 15.9631 7.01091 15.9394 7.04644 15.9039L9.11881 13.6894C9.17802 13.6302 9.27276 13.6184 9.34381 13.6539L12.0083 15.1105C12.1385 15.1815 12.3162 15.1342 12.3872 15.0039C12.3991 14.9921 12.3991 14.9684 12.4109 14.9565L16.6859 2.39207C16.7333 2.24996 16.6622 2.08417 16.5083 2.03681C16.4372 2.01312 16.3662 2.01312 16.307 2.03681ZM7.61486 12.1736L6.84512 14.3289L5.73197 10.9302L13.832 4.76049L7.61486 12.1736Z" fill="currentColor"/>
    </symbol>

    <symbol id="whatsapp" width="16" height="16" viewBox="0 0 16 16" fill="none" xmlns="http://www.w3.org/2000/svg">
        <path d="M8.00031 1.15784C4.22136 1.15784 1.1582 4.22099 1.1582 7.99994C1.1582 9.43152 1.62136 10.842 2.45294 11.9999L1.60031 14.5473L4.23189 13.7052C7.37926 15.7894 11.6319 14.9157 13.7056 11.7578C15.7793 8.59994 14.9161 4.35784 11.7582 2.28415C10.6529 1.55784 9.33715 1.15784 8.00031 1.15784ZM11.6424 10.842L10.9056 11.5578C10.1372 12.3263 8.10557 11.4947 6.30557 9.67363C4.50557 7.85257 3.70557 5.84205 4.43189 5.09468L5.16873 4.35784C5.46347 4.08415 5.90557 4.08415 6.21083 4.35784L7.28452 5.43152C7.57926 5.7052 7.57926 6.14731 7.30557 6.44205C7.22136 6.52626 7.13715 6.57889 7.01083 6.61047C6.65294 6.72626 6.44241 7.08415 6.54768 7.45257C6.73715 8.25257 7.77926 9.25257 8.54768 9.45257C8.90557 9.51573 9.26347 9.33678 9.38978 8.98942C9.50557 8.61047 9.9161 8.41047 10.295 8.52626C10.4108 8.55784 10.495 8.63152 10.5898 8.71573L11.6635 9.78942C11.895 10.0842 11.895 10.5473 11.6424 10.842Z" fill="currentColor"/>
    </symbol>

    <symbol id="arrow" width="18" height="19" viewBox="0 0 18 19" fill="none" xmlns="http://www.w3.org/2000/svg">
        <path d="M9.96967 14.8248C9.67678 14.5319 9.67678 14.057 9.96967 13.7641L13.9393 9.79443L2.25 9.79443C1.83579 9.79443 1.5 9.45865 1.5 9.04443C1.5 8.63022 1.83579 8.29443 2.25 8.29443L13.9393 8.29443L9.96967 4.32476C9.67678 4.03187 9.67678 3.557 9.96967 3.2641C10.2626 2.97121 10.7374 2.97121 11.0303 3.2641L16.2803 8.5141C16.5732 8.807 16.5732 9.28187 16.2803 9.57476L11.0303 14.8248C10.7374 15.1177 10.2626 15.1177 9.96967 14.8248Z" fill="currentColor"/>
    </symbol>
</svg>

